ply
format ascii 1.0
comment Created in Blender version 4.2.0
element vertex 42
property float x
property float y
property float z
element face 80
property list uchar uint vertex_indices
end_header
0 0 -1
0.7236073 -0.5257253 -0.44721952
-0.27638802 -0.85064924 -0.44721985
-0.8944262 0 -0.44721562
-0.27638802 0.85064924 -0.44721985
0.7236073 0.5257253 -0.44721952
0.27638802 -0.85064924 0.44721985
-0.7236073 -0.5257253 0.44721952
-0.7236073 0.5257253 0.44721952
0.27638802 0.85064924 0.44721985
0.8944262 0 0.44721562
0 0 1
-0.16245556 -0.49999526 -0.8506544
0.42532268 -0.3090114 -0.8506542
0.26286882 -0.80901164 -0.52573764
0.85064787 0 -0.5257359
0.42532268 0.3090114 -0.8506542
-0.5257298 0 -0.8506517
-0.6881894 -0.49999693 -0.5257362
-0.16245556 0.49999526 -0.8506544
-0.6881894 0.49999693 -0.5257362
0.26286882 0.80901164 -0.52573764
0.95105785 -0.30901262 0
0.95105785 0.30901262 0
0 -0.99999994 0
0.5877856 -0.8090167 0
-0.95105785 -0.30901262 0
-0.5877856 -0.8090167 0
-0.5877856 0.8090167 0
-0.95105785 0.30901262 0
0.5877856 0.8090167 0
0 0.99999994 0
0.6881894 -0.49999693 0.5257362
-0.26286882 -0.80901164 0.52573764
-0.85064787 0 0.5257359
-0.26286882 0.80901164 0.52573764
0.6881894 0.49999693 0.5257362
0.16245556 -0.49999526 0.85065436
0.5257298 0 0.8506517
-0.42532268 -0.3090114 0.8506542
-0.42532268 0.3090114 0.8506542
0.16245556 0.49999526 0.85065436
3 0 13 12
3 1 13 15
3 0 12 17
3 0 17 19
3 0 19 16
3 1 15 22
3 2 14 24
3 3 18 26
3 4 20 28
3 5 21 30
3 1 22 25
3 2 24 27
3 3 26 29
3 4 28 31
3 5 30 23
3 6 32 37
3 7 33 39
3 8 34 40
3 9 35 41
3 10 36 38
3 38 41 11
3 38 36 41
3 36 9 41
3 41 40 11
3 41 35 40
3 35 8 40
3 40 39 11
3 40 34 39
3 34 7 39
3 39 37 11
3 39 33 37
3 33 6 37
3 37 38 11
3 37 32 38
3 32 10 38
3 23 36 10
3 23 30 36
3 30 9 36
3 31 35 9
3 31 28 35
3 28 8 35
3 29 34 8
3 29 26 34
3 26 7 34
3 27 33 7
3 27 24 33
3 24 6 33
3 25 32 6
3 25 22 32
3 22 10 32
3 30 31 9
3 30 21 31
3 21 4 31
3 28 29 8
3 28 20 29
3 20 3 29
3 26 27 7
3 26 18 27
3 18 2 27
3 24 25 6
3 24 14 25
3 14 1 25
3 22 23 10
3 22 15 23
3 15 5 23
3 16 21 5
3 16 19 21
3 19 4 21
3 19 20 4
3 19 17 20
3 17 3 20
3 17 18 3
3 17 12 18
3 12 2 18
3 15 16 5
3 15 13 16
3 13 0 16
3 12 14 2
3 12 13 14
3 13 1 14
